{"title":"Julayi (2012) Telugu Movie Cam Rip -Team-CC","uid":7529174,"size":703428917,"categoryP":"video","categoryS":"movies","magnet":"?xt=urn:btih:47267a730fd2c8cc4ed09d9a55378dec2a6fcb9a&amp;dn=Julayi+%282012%29+Telugu+Movie+Cam+Rip+-Team-CC&amp;tr=udp%3A%2F%2Ftracker.openbittorrent.com%3A80&amp;tr=udp%3A%2F%2Fopen.demonii.com%3A1337&amp;tr=udp%3A%2F%2Ftracker.coppersurfer.tk%3A6969&amp;tr=udp%3A%2F%2Fexodus.desync.com%3A6969","seeders":1,"leechers":0,"uploader":"TeamCC","files":10,"time":1344880194,"description":"Visit Team-CC.COm For EXCLUSIVE Releases... Please Give Credit To Us Whereever You Share\n\n\nGeneral\nFormat                           : MPEG-PS\nFile size                        : 670 MiB\nDuration                         : 2h 23mn\nOverall bit rate                 : 651 Kbps\n\nVideo\nID                               : 224 (0xE0)\nFormat                           : MPEG Video\nFormat version                   : Version 2\nFormat profile                   : Main@Main\nFormat settings, BVOP            : Yes\nFormat settings, Matrix          : Default\nFormat settings, GOP             : M=3, N=13\nDuration                         : 2h 23mn\nBit rate mode                    : Variable\nBit rate                         : 510 Kbps\nNominal bit rate                 : 9 072 Kbps\nWidth                            : 352 pixels\nHeight                           : 288 pixels\nDisplay aspect ratio             : 4:3\nFrame rate                       : 25.000 fps\nStandard                         : PAL\nColor space                      : YUV\nChroma subsampling               : 4:2:0\nBit depth                        : 8 bits\nScan type                        : Progressive\nCompression mode                 : Lossy\nBits/(Pixel*Frame)               : 0.201\nStream size                      : 525 MiB (78%)\n\nAudio\nID                               : 192 (0xC0)\nFormat                           : MPEG Audio\nFormat version                   : Version 1\nFormat profile                   : Layer 2\nDuration                         : 2h 23mn\nBit rate mode                    : Constant\nBit rate                         : 128 Kbps\nChannel(s)                       : 2 channels\nSampling rate                    : 48.0 KHz\nCompression mode                 : Lossy\nStream size                      : 132 MiB (20%)\n","torrent":{"xt":"urn:btih:47267a730fd2c8cc4ed09d9a55378dec2a6fcb9a","amp;dn":"Julayi+%282012%29+Telugu+Movie+Cam+Rip+-Team-CC","amp;tr":["udp%3A%2F%2Ftracker.openbittorrent.com%3A80","udp%3A%2F%2Fopen.demonii.com%3A1337","udp%3A%2F%2Ftracker.coppersurfer.tk%3A6969","udp%3A%2F%2Fexodus.desync.com%3A6969"],"infoHash":"47267a730fd2c8cc4ed09d9a55378dec2a6fcb9a","infoHashBuffer":{"type":"Buffer","data":[71,38,122,115,15,210,200,204,78,208,157,154,85,55,141,236,42,111,203,154]},"announce":[],"urlList":[]}}